<svg width="65" height="65" viewBox="0 0 65 65" fill="none" xmlns="http://www.w3.org/2000/svg">
<path d="M0.196026 29.4483C0.848442 23.6092 3.09567 18.0624 6.69142 13.4157C10.2872 8.76905 15.0927 5.20191 20.5813 3.10522C26.0699 1.00853 32.0297 0.463216 37.8077 1.52904C43.5857 2.59486 48.9587 5.23068 53.338 9.14763C57.7173 13.0646 60.9339 18.1115 62.6351 23.7352C64.3364 29.359 64.4567 35.3425 62.9828 41.0301C61.509 46.7177 58.4979 51.8898 54.2796 55.9796C50.0613 60.0694 44.7985 62.9191 39.068 64.2163C39.7994 63.0644 40.1163 61.6977 39.9665 60.3415C39.8167 58.9854 39.2091 57.7208 38.244 56.7563L38.204 56.7163C38.852 55.7683 39.484 54.6563 40.084 53.3683C41.0232 51.3183 41.773 49.1868 42.324 47.0003H30.976C31.424 45.7283 31.736 44.3883 31.892 43.0003H43.172C43.7294 39.6963 44.0064 36.351 44 33.0003C44 29.4683 43.708 26.1003 43.176 23.0003H20.824C20.7524 23.4195 20.6857 23.8395 20.624 24.2603C19.3731 23.7645 18.0702 23.4116 16.74 23.2083L16.772 23.0003H5.84003C5.54003 23.7763 5.28003 24.5723 5.04803 25.3803C3.20003 26.4403 1.55603 27.8203 0.196026 29.4483ZM40.088 12.6323C37.628 7.3603 34.628 5.0003 32 5.0003C29.372 5.0003 26.372 7.3603 23.912 12.6323C22.9756 14.6826 22.2285 16.8141 21.68 19.0003H42.328C41.777 16.8138 41.0273 14.6822 40.088 12.6323ZM17.556 19.0003C18.26 16.0283 19.184 13.3123 20.288 10.9403C21.032 9.3443 21.892 7.8483 22.856 6.5283C16.4849 8.73689 11.121 13.1638 7.74403 19.0003H17.56H17.556ZM56.256 47.0003H46.44C45.8045 49.7725 44.8892 52.473 43.708 55.0603C42.964 56.6563 42.104 58.1523 41.14 59.4723C47.5111 57.2637 52.8751 52.8368 56.252 47.0003H56.256ZM47.228 43.0003H58.16C59.348 39.8963 60 36.5203 60 33.0003C60 29.4803 59.348 26.1043 58.16 23.0003H47.228C47.732 26.1523 48 29.5203 48 33.0003C48 36.4803 47.732 39.8483 47.228 43.0003ZM56.256 19.0003C52.8793 13.1635 47.5153 8.73658 41.144 6.5283C42.108 7.8483 42.968 9.3443 43.712 10.9403C44.816 13.3123 45.74 16.0283 46.444 19.0003H56.256ZM25.216 49.3843C27.3357 46.5497 28.303 43.0174 27.9232 39.4983C27.5435 35.9792 25.8449 32.7346 23.1693 30.4174C20.4937 28.1002 17.0397 26.8825 13.5025 27.0093C9.96527 27.1361 6.60735 28.598 4.10454 31.1008C1.60173 33.6036 0.139821 36.9615 0.0130227 40.4988C-0.113776 44.036 1.10395 47.49 3.42113 50.1656C5.73831 52.8412 8.98293 54.5398 12.502 54.9195C16.0211 55.2992 19.5534 54.332 22.388 52.2123L32.588 62.4123C32.9652 62.7766 33.4704 62.9782 33.9948 62.9736C34.5192 62.9691 35.0208 62.7587 35.3917 62.3879C35.7625 62.0171 35.9728 61.5155 35.9774 60.9911C35.9819 60.4667 35.7803 59.9615 35.416 59.5843L25.216 49.3843ZM24 41.0003C24 43.6525 22.9465 46.196 21.0711 48.0714C19.1957 49.9467 16.6522 51.0003 14 51.0003C11.3479 51.0003 8.80432 49.9467 6.92896 48.0714C5.05359 46.196 4.00003 43.6525 4.00003 41.0003C4.00003 38.3481 5.05359 35.8046 6.92896 33.9292C8.80432 32.0539 11.3479 31.0003 14 31.0003C16.6522 31.0003 19.1957 32.0539 21.0711 33.9292C22.9465 35.8046 24 38.3481 24 41.0003Z" fill="#040404"/>
</svg>
