<svg width="50" height="44" viewBox="0 0 50 44" fill="none" xmlns="http://www.w3.org/2000/svg">
<path d="M26.7934 42.5607C25.3791 42.7508 24.5228 42.7913 22.7057 42.5607C20.0536 39.3916 18.8645 37.0298 17.2555 31.813H29.3822C30.0466 32.9247 30.5648 33.4549 31.6985 34.2663C30.0885 37.5923 28.9791 39.3983 26.7934 42.5607Z" stroke="#619B34"/>
<path d="M36.195 35.3177C35.4292 37.7037 34.6758 39.0305 33.1974 41.3925C39.3067 39.1023 42.3354 37.2436 46.2778 31.813H40.6914C39.5237 33.853 38.4999 34.5754 36.195 35.3177Z" stroke="#619B34"/>
<path d="M11.9416 31.813C13.166 35.5485 14.0883 37.6464 16.0293 41.3925C9.87279 38.6722 6.90703 36.798 3.90258 31.813H11.9416Z" stroke="#619B34"/>
<path d="M20.1169 16.2757C18.9 17.6341 17.9976 18.2169 16.0293 18.9626C15.356 22.1802 15.5692 24.1632 16.0293 27.7243H29.3822C30.5206 25.674 33.9501 24.4213 34.1511 24.6869C34.3522 24.9524 33.6061 16.2757 33.6061 16.2757H20.1169Z" stroke="#619B34"/>
<path d="M47.9129 16.2757H38.375C38.8592 19.9619 38.8382 22.0618 38.375 25.8551C39.712 26.4002 40.1145 26.8542 40.6914 27.7243H48.4579C49.3329 23.3584 49.3395 20.8638 47.9129 16.2757Z" stroke="#619B34"/>
<path d="M11.1241 18.028C10.7003 21.8146 10.7263 23.9377 11.1241 27.7243H1.58625C0.474304 22.9315 0.541596 20.4283 1.85876 16.2757H9.21652L11.1241 18.028Z" stroke="#619B34"/>
<path d="M13.4404 8.44855C10.9065 9.18655 9.93412 9.9902 8.80775 11.9532H3.76632C7.90783 6.67517 10.593 4.52274 16.3018 2.72426L13.4404 8.44855Z" stroke="#619B34"/>
<path d="M20.3894 11.9532C19.7941 10.78 19.3528 10.2124 18.2093 9.49996C19.6961 6.14206 20.7472 4.36598 23.1145 1.43921H26.9296C29.5779 4.79139 30.7342 7.1471 32.3798 11.9532H20.3894Z" stroke="#619B34"/>
<path d="M37.5575 11.9532C36.5959 8.26101 35.6186 6.25734 33.6061 2.72426C39.5201 4.95343 42.3103 6.87742 46.0053 11.9532H37.5575Z" stroke="#619B34"/>
</svg>
