<svg width="50" height="44" viewBox="0 0 50 44" fill="none" xmlns="http://www.w3.org/2000/svg">
<path d="M26.7936 42.5607C25.3793 42.7508 24.5231 42.7913 22.706 42.5607C20.0538 39.3916 18.8647 37.0298 17.2558 31.813H29.3824C30.0468 32.9246 30.5651 33.4549 31.6988 34.2663C30.0887 37.5923 28.9793 39.3983 26.7936 42.5607Z" stroke="#040404" stroke-opacity="0.4"/>
<path d="M36.1952 35.3177C35.4295 37.7036 34.676 39.0305 33.1976 41.3924C39.3069 39.1023 42.3357 37.2436 46.278 31.813H40.6916C39.5239 33.8529 38.5001 34.5754 36.1952 35.3177Z" stroke="#040404" stroke-opacity="0.4"/>
<path d="M11.9418 31.813C13.1662 35.5485 14.0885 37.6463 16.0295 41.3924C9.87302 38.6722 6.90726 36.798 3.90281 31.813H11.9418Z" stroke="#040404" stroke-opacity="0.4"/>
<path d="M20.1171 16.2756C18.9002 17.6341 17.9978 18.2169 16.0295 18.9625C15.3563 22.1801 15.5694 24.1631 16.0295 27.7242H29.3824C30.5208 25.6739 33.9503 24.4213 34.1514 24.6868C34.3524 24.9524 33.6063 16.2756 33.6063 16.2756H20.1171Z" stroke="#040404" stroke-opacity="0.4"/>
<path d="M47.9131 16.2756H38.3753C38.8594 19.9619 38.8384 22.0618 38.3753 25.8551C39.7122 26.4002 40.1148 26.8542 40.6916 27.7242H48.4581C49.3331 23.3584 49.3397 20.8638 47.9131 16.2756Z" stroke="#040404" stroke-opacity="0.4"/>
<path d="M11.1243 18.028C10.7005 21.8145 10.7265 23.9377 11.1243 27.7242H1.58648C0.474533 22.9315 0.541825 20.4283 1.85899 16.2756H9.21674L11.1243 18.028Z" stroke="#040404" stroke-opacity="0.4"/>
<path d="M13.4406 8.44852C10.9067 9.18652 9.93435 9.99017 8.80798 11.9532H3.76655C7.90806 6.67514 10.5933 4.52271 16.302 2.72423L13.4406 8.44852Z" stroke="#040404" stroke-opacity="0.4"/>
<path d="M20.3896 11.9532C19.7943 10.7799 19.3531 10.2124 18.2096 9.49993C19.6963 6.14203 20.7474 4.36595 23.1147 1.43918H26.9299C29.5781 4.79136 30.7344 7.14707 32.3801 11.9532H20.3896Z" stroke="#040404" stroke-opacity="0.4"/>
<path d="M37.5577 11.9532C36.5961 8.26098 35.6189 6.25731 33.6063 2.72423C39.5203 4.9534 42.3106 6.87739 46.0055 11.9532H37.5577Z" stroke="#040404" stroke-opacity="0.4"/>
</svg>
